<svg width="25" height="26" viewBox="0 0 25 26" fill="none" xmlns="http://www.w3.org/2000/svg">
<path d="M24.7188 13C24.7188 19.6878 19.2972 25.1094 12.6094 25.1094C5.92153 25.1094 0.5 19.6878 0.5 13C0.5 6.31216 5.92153 0.890625 12.6094 0.890625C19.2972 0.890625 24.7188 6.31216 24.7188 13ZM11.2087 19.4118L20.1931 10.4274C20.4981 10.1224 20.4981 9.62769 20.1931 9.32261L19.0882 8.21777C18.7832 7.91265 18.2885 7.91265 17.9833 8.21777L10.6562 15.5448L7.2354 12.124C6.93032 11.8189 6.43564 11.8189 6.13052 12.124L5.02568 13.2288C4.72061 13.5339 4.72061 14.0286 5.02568 14.3336L10.1038 19.4118C10.4089 19.7169 10.9036 19.7169 11.2087 19.4118Z" fill="#D1003F"/>
</svg>
